<svg width="749" height="171" viewBox="0 0 749 171" fill="none" xmlns="http://www.w3.org/2000/svg">
<path d="M169.626 82.6874L137.563 57.7496C137.036 57.34 136.405 57.0865 135.742 57.0179C135.078 56.9493 134.408 57.0685 133.809 57.3618C133.21 57.6551 132.705 58.1107 132.352 58.6769C131.999 59.243 131.812 59.8969 131.813 60.564V78.3767H92.6251C90.7354 78.3767 88.9231 79.1274 87.5869 80.4636C86.2507 81.7998 85.5 83.6121 85.5 85.5018C85.5 87.3915 86.2507 89.2038 87.5869 90.54C88.9231 91.8762 90.7354 92.6269 92.6251 92.6269H131.813V110.44C131.812 111.107 131.999 111.761 132.352 112.327C132.705 112.893 133.21 113.349 133.809 113.642C134.408 113.935 135.078 114.054 135.742 113.986C136.405 113.917 137.036 113.664 137.563 113.254L169.626 88.3162C170.369 87.7372 170.853 86.8874 170.971 85.9526C171.089 85.0179 170.832 84.0744 170.256 83.3287C170.074 83.0889 169.862 82.8733 169.626 82.6874Z" fill="url(#paint0_linear_2048_2347)"/>
<g filter="url(#filter0_bi_2048_2347)">
<path d="M71.2539 131.813C94.8641 131.813 114.004 112.673 114.004 89.063C114.004 65.4528 94.8641 46.313 71.2539 46.313C47.6437 46.313 28.5039 65.4528 28.5039 89.063C28.5039 112.673 47.6437 131.813 71.2539 131.813Z" fill="#F1F1F1" fill-opacity="0.1"/>
<path d="M71.2539 131.813C94.8641 131.813 114.004 112.673 114.004 89.063C114.004 65.4528 94.8641 46.313 71.2539 46.313C47.6437 46.313 28.5039 65.4528 28.5039 89.063C28.5039 112.673 47.6437 131.813 71.2539 131.813Z" fill="url(#paint1_linear_2048_2347)" fill-opacity="0.4"/>
<path d="M113.538 89.063C113.538 112.416 94.6065 131.347 71.2539 131.347C47.9013 131.347 28.9703 112.416 28.9703 89.063C28.9703 65.7104 47.9013 46.7794 71.2539 46.7794C94.6065 46.7794 113.538 65.7104 113.538 89.063Z" stroke="url(#paint2_linear_2048_2347)" stroke-opacity="0.1" stroke-width="0.932727"/>
</g>
<path d="M67.6883 92.6256H7.12508C5.23539 92.6256 3.4231 91.875 2.08689 90.5388C0.750676 89.2025 0 87.3903 0 85.5006C0 83.6109 0.750676 81.7986 2.08689 80.4624C3.4231 79.1262 5.23539 78.3755 7.12508 78.3755H67.6883C69.5779 78.3755 71.3902 79.1262 72.7264 80.4624C74.0627 81.7986 74.8133 83.6109 74.8133 85.5006C74.8133 87.3903 74.0627 89.2025 72.7264 90.5388C71.3902 91.875 69.5779 92.6256 67.6883 92.6256Z" fill="url(#paint3_linear_2048_2347)"/>
<path d="M322.944 31.7976C322.944 27.5723 326.374 24.1471 330.606 24.1471C334.837 24.1471 338.267 27.5723 338.267 31.7976V149.35C338.267 153.575 334.837 157 330.606 157C326.374 157 322.944 153.575 322.944 149.35V31.7976ZM277.86 49.8938V62.5465C277.86 68.1372 278.646 73.6788 280.217 79.1715C281.887 84.566 284.245 89.6663 287.289 94.4724C290.334 99.1803 293.969 103.447 298.192 107.272C300.229 109.117 302.38 110.779 304.645 112.259C308.422 114.726 309.901 119.85 307.303 123.536C305.347 126.312 301.672 127.364 298.727 125.67C293.105 122.437 288.065 118.217 283.606 113.01C277.909 106.242 273.489 98.5428 270.346 89.9115C267.399 99.1313 263.028 107.468 257.233 114.923C252.858 120.647 247.846 125.273 242.197 128.799C239.23 130.651 235.416 129.634 233.373 126.798C230.702 123.092 232.136 117.885 235.874 115.255C238.109 113.681 240.22 111.903 242.205 109.92C246.429 105.801 250.063 101.191 253.108 96.0907C256.153 90.8923 258.461 85.3997 260.033 79.6128C261.702 73.826 262.537 68.1372 262.537 62.5465V49.8938H239.185C235.727 49.8938 232.923 47.0943 232.923 43.641C232.923 40.1877 235.727 37.3883 239.185 37.3883H301.213C304.671 37.3883 307.474 40.1877 307.474 43.641C307.474 47.0943 304.671 49.8938 301.213 49.8938H277.86Z" fill="black"/>
<path d="M433.286 102.123H459.364V31.5769C459.364 27.3923 462.761 24 466.952 24C471.142 24 474.54 27.3923 474.54 31.5769V117.497C474.54 121.682 471.142 125.074 466.952 125.074C462.761 125.074 459.364 121.682 459.364 117.497V112.716H433.286V102.123ZM400.725 120.808V96.0907C394.243 96.385 388.054 96.5811 382.161 96.6792C378.269 96.7451 374.487 96.7888 370.816 96.8105C367.764 96.8285 365.168 94.6041 364.701 91.5922C364.121 87.8474 367.021 84.4684 370.816 84.4462C374.774 84.423 378.9 84.3812 383.192 84.3208C390.264 84.2227 397.484 84.0756 404.851 83.8794C412.217 83.5852 419.633 83.1928 427.098 82.7024C434.563 82.1139 441.831 81.3783 448.903 80.4956L450.082 91.3827C444.483 92.3636 438.787 93.1973 432.991 93.8839C427.294 94.4723 421.598 94.9137 415.901 95.208V120.808H400.725ZM396.747 142.14H471.446C474.863 142.14 477.634 144.907 477.634 148.32C477.634 151.732 474.863 154.499 471.446 154.499H381.572V122.794C381.572 118.609 384.969 115.217 389.16 115.217C393.35 115.217 396.747 118.609 396.747 122.794V142.14Z" fill="black"/>
<path d="M570.737 59.7511H594.9V31.8711C594.9 27.6865 598.297 24.2942 602.488 24.2942C606.678 24.2942 610.076 27.6865 610.076 31.8711V113.819C610.076 118.004 606.678 121.396 602.488 121.396C598.297 121.396 594.9 118.004 594.9 113.819V72.2566H570.737V59.7511ZM571.131 87.3477C574.998 89.4231 576.729 94.3335 574.367 98.0331V98.0331C572.67 100.69 569.352 101.878 566.478 100.583C561.202 98.2076 556.532 95.1407 552.468 91.3827C547.262 86.3805 543.235 80.5937 540.386 74.0221C537.44 81.3783 533.216 87.8027 527.716 93.2954C523.403 97.5247 518.336 100.94 512.515 103.542C509.638 104.827 506.321 103.66 504.594 101.025V101.025C502.127 97.2602 503.909 92.2022 507.881 90.087C509.894 89.0157 511.79 87.8293 513.572 86.5277C517.599 83.4871 520.987 80.1032 523.738 76.3761C526.586 72.5509 528.747 68.4805 530.22 64.1648C531.694 59.7511 532.43 55.3374 532.43 50.9237V46.3628H510.404C507.027 46.3628 504.29 43.6292 504.29 40.2572C504.29 36.8851 507.027 34.1515 510.404 34.1515H569.338C572.714 34.1515 575.452 36.8851 575.452 40.2572C575.452 43.6292 572.714 46.3628 569.338 46.3628H547.753V50.9237C547.753 55.0431 548.441 59.1136 549.816 63.135C551.191 67.0583 553.205 70.7854 555.857 74.3164C558.509 77.8473 561.75 81.035 565.581 83.8794C567.324 85.1418 569.174 86.2979 571.131 87.3477ZM539.06 142.14H607.276C610.694 142.14 613.464 144.907 613.464 148.32C613.464 151.732 610.694 154.499 607.276 154.499H523.885V120.587C523.885 116.402 527.282 113.01 531.473 113.01C535.663 113.01 539.06 116.402 539.06 120.587V142.14Z" fill="black"/>
<path d="M734.561 31.3562C734.561 27.3747 737.794 24.1471 741.781 24.1471C745.768 24.1471 749 27.3747 749 31.3562V149.644C749 153.625 745.768 156.853 741.781 156.853C737.794 156.853 734.561 153.625 734.561 149.644V31.3562ZM707.894 74.4635V33.7102C707.894 29.81 711.06 26.6482 714.966 26.6482C718.872 26.6482 722.038 29.81 722.038 33.7102V143.612C722.038 147.512 718.872 150.674 714.966 150.674C711.06 150.674 707.894 147.512 707.894 143.612V86.969H693.75C693.455 93.4425 692.522 99.2784 690.95 104.477C689.477 109.577 687.513 113.942 685.057 117.571C682.601 121.2 679.704 123.995 676.364 125.957C673.025 127.82 669.341 128.752 665.314 128.752C661.091 128.752 657.211 127.673 653.675 125.515C650.139 123.26 647.094 120.121 644.54 116.1C642.085 111.98 640.169 107.027 638.794 101.24C637.419 95.3551 636.731 88.7836 636.731 81.5254C636.731 74.2673 637.419 67.7448 638.794 61.958C640.169 56.073 642.085 51.1198 644.54 47.0985C647.094 42.979 650.139 39.8403 653.675 37.6825C657.211 35.5247 661.091 34.4458 665.314 34.4458C673.369 34.4458 679.9 37.9768 684.91 45.0387C689.919 52.1007 692.817 61.9089 693.602 74.4635H707.894ZM665.314 114.481C670.029 114.481 673.663 111.686 676.217 106.095C678.771 100.406 680.048 92.2164 680.048 81.5254C680.048 70.8344 678.771 62.6936 676.217 57.1029C673.663 51.5122 670.029 48.7168 665.314 48.7168C660.6 48.7168 656.965 51.5122 654.411 57.1029C651.858 62.6936 650.581 70.8344 650.581 81.5254C650.581 92.2164 651.858 100.406 654.411 106.095C656.965 111.686 660.6 114.481 665.314 114.481Z" fill="black"/>
<path fill-rule="evenodd" clip-rule="evenodd" d="M405.447 77.9948C422.535 77.9948 436.387 66.1382 436.387 51.5125C436.387 36.8867 422.535 25.0302 405.447 25.0302C388.359 25.0302 374.507 36.8867 374.507 51.5125C374.507 66.1382 388.359 77.9948 405.447 77.9948ZM405.451 66.2248C414.944 66.2248 422.64 59.6379 422.64 51.5125C422.64 43.387 414.944 36.8001 405.451 36.8001C395.957 36.8001 388.262 43.387 388.262 51.5125C388.262 59.6379 395.957 66.2248 405.451 66.2248Z" fill="black"/>
<defs>
<filter id="filter0_bi_2048_2347" x="9.84936" y="27.6584" width="122.809" height="122.809" filterUnits="userSpaceOnUse" color-interpolation-filters="sRGB">
<feFlood flood-opacity="0" result="BackgroundImageFix"/>
<feGaussianBlur in="BackgroundImageFix" stdDeviation="9.32727"/>
<feComposite in2="SourceAlpha" operator="in" result="effect1_backgroundBlur_2048_2347"/>
<feBlend mode="normal" in="SourceGraphic" in2="effect1_backgroundBlur_2048_2347" result="shape"/>
<feColorMatrix in="SourceAlpha" type="matrix" values="0 0 0 0 0 0 0 0 0 0 0 0 0 0 0 0 0 0 127 0" result="hardAlpha"/>
<feOffset dy="6.21818"/>
<feGaussianBlur stdDeviation="4.66364"/>
<feComposite in2="hardAlpha" operator="arithmetic" k2="-1" k3="1"/>
<feColorMatrix type="matrix" values="0 0 0 0 1 0 0 0 0 1 0 0 0 0 1 0 0 0 0.4 0"/>
<feBlend mode="normal" in2="shape" result="effect2_innerShadow_2048_2347"/>
</filter>
<linearGradient id="paint0_linear_2048_2347" x1="89.0625" y1="68.4001" x2="180.11" y2="87.3664" gradientUnits="userSpaceOnUse">
<stop stop-color="#78F195"/>
<stop offset="1" stop-color="#5A3FFF"/>
</linearGradient>
<linearGradient id="paint1_linear_2048_2347" x1="32.0664" y1="63.413" x2="125.269" y2="76.3577" gradientUnits="userSpaceOnUse">
<stop stop-color="#78F195"/>
<stop offset="1" stop-color="#5A3FFF"/>
</linearGradient>
<linearGradient id="paint2_linear_2048_2347" x1="31.1758" y1="50.1994" x2="114.004" y2="50.1994" gradientUnits="userSpaceOnUse">
<stop stop-color="#C8A6FF"/>
<stop offset="1" stop-color="#69CFB5"/>
</linearGradient>
<linearGradient id="paint3_linear_2048_2347" x1="3.11722" y1="81.2255" x2="57.3881" y2="120.798" gradientUnits="userSpaceOnUse">
<stop stop-color="#78F195"/>
<stop offset="1" stop-color="#5A3FFF"/>
</linearGradient>
</defs>
</svg>
