<svg width="733" height="188" viewBox="0 0 733 188" fill="none" xmlns="http://www.w3.org/2000/svg">
<path d="M186.489 90.9068L151.239 63.4898C150.66 63.0394 149.966 62.7607 149.236 62.6853C148.507 62.6099 147.771 62.7409 147.112 63.0634C146.453 63.3858 145.898 63.8868 145.51 64.5092C145.122 65.1316 144.917 65.8505 144.917 66.584V86.1675H101.833C99.7559 86.1675 97.7634 86.9928 96.2944 88.4619C94.8253 89.9309 94 91.9234 94 94.001C94 96.0785 94.8253 98.071 96.2944 99.54C97.7634 101.009 99.7559 101.834 101.833 101.834H144.917V121.418C144.917 122.151 145.122 122.87 145.51 123.493C145.898 124.115 146.453 124.616 147.112 124.939C147.771 125.261 148.507 125.392 149.236 125.317C149.966 125.241 150.66 124.962 151.239 124.512L186.489 97.0952C187.306 96.4586 187.838 95.5242 187.968 94.4966C188.098 93.4689 187.815 92.4317 187.182 91.6118C186.982 91.3481 186.749 91.1112 186.489 90.9068Z" fill="url(#paint0_linear_2050_2526)"/>
<g filter="url(#filter0_bi_2050_2526)">
<path d="M78.332 144.916C104.289 144.916 125.332 123.873 125.332 97.916C125.332 71.9586 104.289 50.916 78.332 50.916C52.3746 50.916 31.332 71.9586 31.332 97.916C31.332 123.873 52.3746 144.916 78.332 144.916Z" fill="#F1F1F1" fill-opacity="0.1"/>
<path d="M78.332 144.916C104.289 144.916 125.332 123.873 125.332 97.916C125.332 71.9586 104.289 50.916 78.332 50.916C52.3746 50.916 31.332 71.9586 31.332 97.916C31.332 123.873 52.3746 144.916 78.332 144.916Z" fill="url(#paint1_linear_2050_2526)" fill-opacity="0.4"/>
<path d="M124.866 97.916C124.866 123.616 104.032 144.45 78.332 144.45C52.6322 144.45 31.7984 123.616 31.7984 97.916C31.7984 72.2162 52.6322 51.3824 78.332 51.3824C104.032 51.3824 124.866 72.2162 124.866 97.916Z" stroke="url(#paint2_linear_2050_2526)" stroke-opacity="0.1" stroke-width="0.932727"/>
</g>
<path d="M74.4175 101.833H7.83342C5.75587 101.833 3.76341 101.008 2.29436 99.539C0.825305 98.0699 0 96.0775 0 93.9999C0 91.9224 0.825305 89.9299 2.29436 88.4609C3.76341 86.9918 5.75587 86.1665 7.83342 86.1665H74.4175C76.4951 86.1665 78.4875 86.9918 79.9566 88.4609C81.4256 89.9299 82.2509 91.9224 82.2509 93.9999C82.2509 96.0775 81.4256 98.0699 79.9566 99.539C78.4875 101.008 76.4951 101.833 74.4175 101.833Z" fill="url(#paint3_linear_2050_2526)"/>
<path d="M326.354 37.1421C331.55 37.1421 335.762 41.3542 335.762 46.5501V158.592C335.762 163.788 331.55 168 326.354 168C321.158 168 316.946 163.788 316.946 158.592V46.5501C316.946 41.3542 321.158 37.1421 326.354 37.1421ZM277.746 72.3785C277.746 90.3531 285.249 109.237 300.768 120.166C305.322 123.374 307.242 129.7 304.064 134.275C301.691 137.693 297.19 139.026 293.614 136.899C281.708 129.816 273.478 118.787 268.48 105.057C263.491 119.733 255.075 132.234 243.142 139.91C239.549 142.222 234.901 140.92 232.412 137.447C229.104 132.831 230.931 126.351 235.481 122.952C251.124 111.266 258.645 91.2144 258.645 72.3785V65.1323H239.019C234.743 65.1323 231.276 61.6654 231.276 57.3888C231.276 53.1122 234.743 49.6453 239.019 49.6453H294.829C300.352 49.6453 304.829 54.1225 304.829 59.6453V65.1323H277.746V72.3785Z" fill="black"/>
<path d="M449.787 113.156V46.5501C449.787 41.3542 453.999 37.1421 459.195 37.1421C464.391 37.1421 468.603 41.3542 468.603 46.5501V126.908C468.603 132.104 464.391 136.316 459.195 136.316C453.999 136.316 449.787 132.104 449.787 126.908V125.944H425.126V113.156H449.787ZM463.994 150.808C468.114 150.808 471.454 154.148 471.454 158.267C471.454 162.387 468.114 165.727 463.994 165.727H374.095V136.796C374.095 131.273 378.572 126.796 384.095 126.796H392.341V109.32C383.221 109.769 374.456 109.952 366.328 110.009C362.67 110.035 359.552 107.378 358.966 103.767C358.229 99.2295 361.728 95.114 366.325 95.0844C388.963 94.9386 416.692 94.1421 441.091 91.1334L442.374 104.489C432.111 106.336 421.848 107.473 411.014 108.183V132.906H392.911V150.808H463.994Z" fill="black"/>
<path d="M580.204 70.9577V46.5501C580.204 41.3542 584.417 37.1421 589.612 37.1421C594.808 37.1421 599.02 41.3542 599.02 46.5501V123.214C599.02 128.409 594.808 132.621 589.612 132.621C584.417 132.621 580.204 128.409 580.204 123.213V86.1605H559.678V70.9577H580.204ZM562.725 110.14C560.684 113.414 556.639 114.94 553.134 113.328C542.025 108.221 534.192 100.016 529.458 89.8547C524.433 101.095 516.14 110.234 504.126 115.826C500.592 117.472 496.494 115.954 494.415 112.656C491.45 107.954 493.803 101.748 498.614 98.9643C513.119 90.5733 519.48 76.255 519.48 62.7169V60.8698H501.139C497.019 60.8698 493.679 57.5302 493.679 53.4105C493.679 49.2908 497.019 45.9512 501.139 45.9512H556.78C560.9 45.9512 564.239 49.2908 564.239 53.4105C564.239 57.5302 560.9 60.8698 556.78 60.8698H538.724V62.5748C538.724 75.3697 544.853 88.6495 558.64 96.7255C563.331 99.4738 565.601 105.526 562.725 110.14ZM594.555 150.808C598.674 150.808 602.014 154.148 602.014 158.267C602.014 162.387 598.674 165.727 594.555 165.727H512.495V134.073C512.495 128.877 516.708 124.665 521.903 124.665C527.099 124.665 531.311 128.877 531.311 134.073V150.808H594.555Z" fill="black"/>
<path d="M724.093 37C729.013 37 733.002 40.9887 733.002 45.9091V158.949C733.002 163.869 729.013 167.858 724.093 167.858C719.172 167.858 715.184 163.869 715.184 158.949V45.9091C715.184 40.9887 719.172 37 724.093 37ZM688.528 48.0398C688.528 43.1982 692.453 39.2733 697.294 39.2733C702.136 39.2733 706.061 43.1982 706.061 48.0398V162.175H698.528C693.005 162.175 688.528 157.697 688.528 152.175V100.511H678.264C676.554 126.228 666.006 141.431 649.898 141.431C632.507 141.431 621.531 123.528 621.531 93.833C621.531 64.2798 632.507 46.3774 649.898 46.3774C665.435 46.3774 675.984 59.7332 678.122 85.308H688.528V48.0398ZM649.898 123.812C657.168 123.812 661.302 114.435 661.302 93.833C661.302 73.7993 657.168 63.9957 649.898 63.9957C642.628 63.9957 638.494 73.7993 638.494 93.833C638.494 114.435 642.628 123.812 649.898 123.812Z" fill="black"/>
<path fill-rule="evenodd" clip-rule="evenodd" d="M398.659 90C415.59 90 429.316 78.1355 429.316 63.5C429.316 48.8645 415.59 37 398.659 37C381.727 37 368.002 48.8645 368.002 63.5C368.002 78.1355 381.727 90 398.659 90ZM398.658 75.451C406.294 75.451 412.483 70.1003 412.483 63.5C412.483 56.8997 406.294 51.549 398.658 51.549C391.022 51.549 384.832 56.8997 384.832 63.5C384.832 70.1003 391.022 75.451 398.658 75.451Z" fill="black"/>
<defs>
<filter id="filter0_bi_2050_2526" x="12.6775" y="32.2615" width="131.309" height="131.309" filterUnits="userSpaceOnUse" color-interpolation-filters="sRGB">
<feFlood flood-opacity="0" result="BackgroundImageFix"/>
<feGaussianBlur in="BackgroundImageFix" stdDeviation="9.32727"/>
<feComposite in2="SourceAlpha" operator="in" result="effect1_backgroundBlur_2050_2526"/>
<feBlend mode="normal" in="SourceGraphic" in2="effect1_backgroundBlur_2050_2526" result="shape"/>
<feColorMatrix in="SourceAlpha" type="matrix" values="0 0 0 0 0 0 0 0 0 0 0 0 0 0 0 0 0 0 127 0" result="hardAlpha"/>
<feOffset dy="6.21818"/>
<feGaussianBlur stdDeviation="4.66364"/>
<feComposite in2="hardAlpha" operator="arithmetic" k2="-1" k3="1"/>
<feColorMatrix type="matrix" values="0 0 0 0 1 0 0 0 0 1 0 0 0 0 1 0 0 0 0.4 0"/>
<feBlend mode="normal" in2="shape" result="effect2_innerShadow_2050_2526"/>
</filter>
<linearGradient id="paint0_linear_2050_2526" x1="97.9166" y1="75.1991" x2="198.016" y2="96.0509" gradientUnits="userSpaceOnUse">
<stop stop-color="#78F195"/>
<stop offset="1" stop-color="#5A3FFF"/>
</linearGradient>
<linearGradient id="paint1_linear_2050_2526" x1="35.2487" y1="69.716" x2="137.717" y2="83.9477" gradientUnits="userSpaceOnUse">
<stop stop-color="#78F195"/>
<stop offset="1" stop-color="#5A3FFF"/>
</linearGradient>
<linearGradient id="paint2_linear_2050_2526" x1="34.2695" y1="55.1887" x2="125.332" y2="55.1887" gradientUnits="userSpaceOnUse">
<stop stop-color="#C8A6FF"/>
<stop offset="1" stop-color="#69CFB5"/>
</linearGradient>
<linearGradient id="paint3_linear_2050_2526" x1="3.42712" y1="89.2999" x2="63.0934" y2="132.807" gradientUnits="userSpaceOnUse">
<stop stop-color="#78F195"/>
<stop offset="1" stop-color="#5A3FFF"/>
</linearGradient>
</defs>
</svg>
